# xmcd
#
# Track frame offsets: 
#        150
#        13260
#        28615
#        42214
#        60840
#        81273
#        94132
#        111328
#        127271
#        146192
#        156553
#        171914
#        182134
#        193227
#        212001
#        242941
#
# Disc length: 4373 seconds
#
# Revision: 19
# Processed by: cddbd v1.5.2PL0 Copyright (c) Steve Scherf et al.
# Submitted via: ExactAudioCopy v1.1
#
DISCID=f1111310
DTITLE=Texas Lightning - Meanwhile, Back at the Ranch ...
DYEAR=2006
DGENRE=Country
TTITLE0=Bad Case of Loving You
TTITLE1=Like a Virgin
TTITLE2=No No Never
TTITLE3=Kiss
TTITLE4=Over the Mountains
TTITLE5=C'est la vie
TTITLE6=Highway to Hell
TTITLE7=Dancing Queen
TTITLE8=Man in the Mirror
TTITLE9=Norwegian Wood
TTITLE10=Smoke! Smoke! Smoke! (That Cigarette)
TTITLE11=Walking after Midnight
TTITLE12=Raindrops Keep Falling on My Head
TTITLE13=Walk on the Wild Side
TTITLE14=Blue Bayou
TTITLE15=Texas Lightning - Data Track
EXTD=YEAR: 2006
EXTT0=
EXTT1=
EXTT2=
EXTT3=
EXTT4=
EXTT5=
EXTT6=
EXTT7=
EXTT8=
EXTT9=
EXTT10=
EXTT11=
EXTT12=
EXTT13=
EXTT14=
EXTT15=
PLAYORDER=
